# 3ds Max Wavefront OBJ Exporter v0.97b - (c)2007 guruware
# File Created: 11.01.2021 21:09:35

mtllib grass.mtl

#
# object Box001
#

#
# object Box002
#

v  -10.0000 -0.0000 10.0000
v  10.0000 -0.0000 10.0000
v  10.0000 0.0000 -10.0000
v  -10.0000 0.0000 -10.0000
# 4 vertices

vn 0.0000 1.0000 0.0000
# 1 vertex normals

vt -4.4866 -4.5856 0.5000
vt 5.5134 -4.5856 0.5000
vt 5.5134 5.4144 0.5000
vt -4.4866 5.4144 0.5000
# 4 texture coords

o Box002
g Box002
usemtl wire_057008136
s 4
f 1/1/1 2/2/1 3/3/1 4/4/1 
# 1 polygons

