# 3ds Max Wavefront OBJ Exporter v0.97b - (c)2007 guruware
# File Created: 21.02.2021 23:11:40

mtllib platform.mtl

#
# object Pyramid001
#

#
# object Pyramid002
#

v  -9.0000 1.0000 9.0000
v  -10.0000 0.0000 10.0000
v  10.0000 0.0000 10.0000
v  9.0000 1.0000 9.0000
v  10.0000 0.0000 -10.0000
v  9.0000 1.0000 -9.0000
v  -10.0000 0.0000 -10.0000
v  -9.0000 1.0000 -9.0000
v  -0.0000 0.0000 0.0000
# 9 vertices

vn -0.3002 0.9054 0.3002
vn -0.6891 -0.2242 0.6891
vn 0.6891 -0.2242 0.6891
vn 0.3002 0.9054 0.3002
vn 0.6891 -0.2242 -0.6891
vn 0.3002 0.9054 -0.3002
vn -0.6891 -0.2242 -0.6891
vn -0.3002 0.9054 -0.3002
vn 0.0000 -1.0000 -0.0000
# 9 vertex normals

vt 0.0000 0.0000 0.0000
vt 1.0000 0.0000 0.0000
vt 1.0000 1.0000 0.0000
vt 0.0000 1.0000 0.0000
# 4 texture coords

o Pyramid002
g Pyramid002
usemtl wire_229166215
s 4
f 1/1/1 2/2/2 3/3/3 4/4/4 
s 2
f 4/1/4 3/2/3 5/3/5 6/4/6 
s 16
f 6/1/6 5/2/5 7/3/7 8/4/8 
s 32
f 8/1/8 7/2/7 2/3/2 1/4/1 
s 8
f 2/3/2 9/4/9 3/1/3 
f 3/3/3 9/4/9 5/1/5 
f 5/3/5 9/4/9 7/1/7 
f 7/3/7 9/4/9 2/1/2 
s off
f 4/1/4 6/2/6 8/3/8 1/4/1 
# 5 polygons - 4 triangles

