# 3ds Max Wavefront OBJ Exporter v0.97b - (c)2007 guruware
# File Created: 21.02.2021 02:43:43

mtllib stone.mtl

#
# object GeoSphere001
#

#
# object GeoSphere002
#

v  0.0000 1.0000 -0.0000
v  0.3607 1.1604 -0.0000
v  -0.1371 1.1435 -0.3750
v  0.6729 1.0557 -0.1361
v  0.4795 0.8054 -0.3484
v  0.2079 0.7397 -0.6399
v  0.7812 0.4472 0.2110
v  0.7844 0.5168 -0.7001
v  0.6982 0.5168 -0.6399
v  0.2764 0.4472 -0.8507
v  -0.2918 0.9327 -0.2120
v  -0.1832 0.8054 -0.5637
v  -0.0855 0.9352 -0.6098
v  -0.5882 0.5168 -0.8520
v  -0.4329 0.5168 -0.7386
v  -0.7236 0.4472 -0.5257
v  -0.2918 0.9327 -0.1978
v  -0.5927 0.8054 0.0000
v  -0.5331 0.9786 0.1825
v  -0.8362 0.6698 -0.1835
v  -0.8362 0.5168 0.4712
v  -0.7738 0.6145 0.5257
v  0.1115 1.1562 0.5277
v  -0.1832 0.8054 0.5637
v  0.2079 0.7397 1.0864
v  -0.5396 0.5168 0.7386
v  -0.0839 0.5168 0.8520
v  0.2764 0.4472 0.8507
v  0.4795 0.8054 0.3484
v  0.6667 0.4413 1.0804
v  0.9905 0.7389 0.5410
v  0.9647 0.1561 0.2120
v  1.1913 0.1561 -0.2120
v  0.9051 -0.1561 0.6589
v  0.9855 -0.1699 -0.0000
v  0.9051 -0.1561 -0.3955
v  0.7236 -0.4472 0.5257
v  0.8362 -0.5168 0.1835
v  0.8362 -0.5168 -0.1835
v  0.9333 -0.4472 -0.8495
v  0.3389 0.1561 -0.8520
v  0.0965 0.1561 -0.9830
v  0.6558 -0.1561 -0.7386
v  0.3045 -0.1699 -0.9372
v  -0.0965 -0.1561 -0.9830
v  0.4329 -0.5168 -0.7386
v  0.0839 -0.5168 -0.8520
v  -0.7415 -0.4472 -0.8507
v  -0.9195 0.1561 -0.8387
v  -1.2362 0.1561 -0.2224
v  -0.4998 -0.1561 -0.8520
v  -0.7973 -0.1699 -0.5792
v  -0.9647 -0.5387 -0.2120
v  -0.5687 -0.5168 -0.6399
v  -0.7844 -0.5168 -0.3431
v  -0.8944 -0.4472 0.0000
v  -1.0265 0.1561 0.3955
v  -0.6558 -0.4366 0.7386
v  -0.9647 -0.4010 0.2120
v  -0.7973 -0.1699 0.5792
v  -0.4998 -0.6594 0.8520
v  -0.7844 -0.5168 0.3431
v  -0.5687 -0.5168 0.6399
v  -0.3738 -0.4577 1.0227
v  0.0965 0.1561 0.9830
v  0.4998 -0.2983 0.8520
v  -0.0965 -0.1561 0.9830
v  0.3045 -0.1699 0.9372
v  0.6558 -0.1561 0.7386
v  0.0839 -0.5168 0.8520
v  0.4329 -0.5168 0.7386
v  0.5385 0.1699 -0.7931
v  -0.6102 0.1699 -0.9372
v  -0.9855 0.1699 0.0000
v  -0.3045 0.1699 0.9372
v  0.7973 0.1699 0.5792
v  0.0000 0.6362 -0.0000
v  -0.6080 -0.9327 -0.3431
v  0.2918 -0.9327 -0.5521
v  -0.2079 -0.7397 -0.6399
v  0.1832 -0.8054 -0.5637
v  0.5444 -0.7397 -0.3955
v  -0.3607 -0.9327 0.0000
v  -0.6729 -0.7397 0.0000
v  -0.4795 -0.8054 -0.3484
v  -0.7308 -0.8052 0.1595
v  -0.2079 -0.7397 0.6399
v  -0.4795 -0.8054 0.3484
v  0.2918 -0.9327 0.2120
v  0.7121 -0.7397 0.5675
v  0.1832 -1.0470 0.5637
v  0.5927 -0.8054 -0.0000
# 92 vertices

vn -0.2847 0.9577 0.0425
vn 0.2361 0.9714 -0.0254
vn -0.3584 0.8762 -0.3222
vn 0.5402 0.8046 -0.2467
vn 0.1502 0.7465 -0.6482
vn 0.2098 0.6773 -0.7051
vn 0.8824 0.3543 -0.3095
vn 0.4037 0.4479 -0.7977
vn -0.2208 0.5192 -0.8256
vn 0.2593 0.3877 -0.8846
vn -0.5467 0.8352 -0.0592
vn 0.6565 0.0967 -0.7481
vn 0.7303 0.5384 -0.4205
vn -0.8667 0.4618 -0.1886
vn -0.8482 0.4995 0.1764
vn -0.5649 0.6722 -0.4786
vn -0.2933 0.9555 -0.0325
vn -0.6268 0.7635 -0.1558
vn -0.3709 0.9266 0.0616
vn -0.6993 0.6970 -0.1586
vn -0.8751 0.4653 0.1331
vn -0.6799 0.5332 0.5034
vn -0.0359 0.9328 0.3587
vn -0.4677 0.7102 0.5262
vn -0.0672 0.3259 0.9430
vn -0.4342 0.4194 0.7972
vn -0.3121 0.2968 0.9025
vn -0.1714 -0.2515 0.9526
vn 0.3821 0.8173 0.4313
vn 0.3905 0.1073 0.9143
vn 0.8042 0.5386 0.2513
vn 0.9559 0.1418 0.2571
vn 0.9892 0.0951 -0.1119
vn 0.7264 -0.1206 0.6766
vn 0.9399 -0.3355 0.0635
vn 0.9190 -0.1204 -0.3754
vn 0.7370 -0.3096 0.6008
vn 0.8807 -0.4676 0.0755
vn 0.8456 -0.5320 -0.0446
vn 0.6461 -0.1972 -0.7374
vn 0.4216 0.1309 -0.8973
vn 0.1686 0.1658 -0.9716
vn 0.5079 0.2242 -0.8317
vn 0.3382 -0.1191 -0.9335
vn -0.0380 -0.1598 -0.9864
vn 0.2050 -0.5503 -0.8094
vn 0.1031 -0.5171 -0.8497
vn -0.9464 -0.1361 -0.2929
vn -0.6908 0.0849 -0.7180
vn -0.9891 0.1128 0.0945
vn -0.4935 -0.1424 -0.8580
vn -0.6654 -0.4644 -0.5844
vn -0.5207 -0.8502 -0.0775
vn -0.7566 -0.6112 -0.2324
vn -0.5978 -0.6680 -0.4432
vn -0.2706 -0.9464 0.1766
vn -0.9302 0.1293 0.3436
vn -0.8564 -0.5024 0.1192
vn -0.8488 -0.4829 0.2153
vn -0.6970 -0.6818 -0.2221
vn 0.3639 -0.7370 0.5695
vn -0.7093 -0.5926 0.3819
vn -0.6434 -0.7193 0.2620
vn -0.7719 -0.1002 0.6278
vn 0.1418 0.1587 0.9771
vn -0.1477 -0.9877 0.0520
vn -0.0358 -0.0659 0.9972
vn 0.3509 -0.1067 0.9303
vn 0.4253 -0.0625 0.9029
vn 0.1636 -0.4533 0.8762
vn 0.3969 -0.3295 0.8567
vn 0.4143 0.0717 -0.9073
vn -0.2816 0.1019 -0.9541
vn -0.9282 0.1667 0.3327
vn -0.3252 0.1526 0.9332
vn 0.8659 -0.0521 0.4975
vn -0.0558 -0.9954 -0.0782
vn 0.1209 0.4738 0.8723
vn 0.0560 -0.7508 -0.6581
vn -0.1547 -0.7412 -0.6533
vn 0.0995 -0.4756 -0.8740
vn 0.5616 -0.7524 -0.3442
vn 0.4145 -0.8763 0.2454
vn -0.6742 -0.7385 -0.0000
vn -0.9315 -0.1077 -0.3473
vn 0.9391 0.2491 -0.2369
vn -0.3126 -0.7078 0.6335
vn -0.7655 0.3778 -0.5208
vn 0.0059 -0.9353 -0.3538
vn 0.7127 -0.4873 0.5046
vn 0.0741 -0.9215 0.3812
vn 0.5945 -0.8016 -0.0628
# 92 vertex normals

vt 0.5000 0.5000 1.0086
vt 0.6835 0.5000 0.9744
vt 0.5567 0.6745 0.9744
vt 0.8423 0.5000 0.8763
vt 0.7439 0.6772 0.9097
vt 0.6058 0.8255 0.8763
vt 0.5000 0.8763 0.8423
vt 0.5000 0.7275 0.9549
vt 0.6745 0.7629 0.8989
vt 0.8989 0.6745 0.7629
vt 0.7892 0.8255 0.7629
vt 0.3942 0.8763 0.8255
vt 0.2108 0.7629 0.8255
vt 0.3594 0.7275 0.9327
vt 0.3516 0.6078 0.9744
vt 0.4068 0.7867 0.9097
vt 0.2231 0.7012 0.8763
vt 0.5427 0.7629 0.9333
vt 0.5932 0.9097 0.7867
vt 0.7202 0.7629 0.8757
vt 0.2798 0.8757 0.7629
vt 0.1319 0.7674 0.7275
vt 0.3516 0.3922 0.9744
vt 0.1985 0.5000 0.9097
vt 0.2231 0.2988 0.8763
vt 0.2988 0.8763 0.2231
vt 0.2326 0.7275 0.1319
vt 0.4067 0.7629 0.0747
vt 0.0747 0.5933 0.7629
vt 0.5000 0.9097 0.1985
vt 0.5933 0.7629 0.0747
vt 0.0747 0.4067 0.7629
vt 0.7012 0.8763 0.2231
vt 0.7674 0.7275 0.1319
vt 0.5567 0.3255 0.9744
vt 0.4068 0.2133 0.9097
vt 0.6058 0.1745 0.8763
vt 0.1319 0.2326 0.7275
vt 0.2798 0.1243 0.7629
vt 0.4068 0.9097 0.2133
vt 0.2798 0.7629 0.1243
vt 0.4573 0.7629 0.0667
vt 0.6058 0.8763 0.1745
vt 0.6406 0.7275 0.0673
vt 0.7439 0.3228 0.9097
vt 0.7892 0.7629 0.1745
vt 0.7892 0.1745 0.7629
vt 0.8989 0.3255 0.7629
vt 0.3255 0.7629 0.8989
vt 0.3922 0.5794 0.9907
vt 0.6078 0.5794 0.9907
vt 0.2988 0.4206 0.9604
vt 0.5000 0.4136 1.0012
vt 0.7012 0.4206 0.9604
vt 0.2326 0.2725 0.8681
vt 0.4067 0.2371 0.9253
vt 0.5933 0.2371 0.9253
vt 0.7674 0.2725 0.8681
vt 0.2458 0.5794 0.9333
vt 0.4509 0.5794 1.0000
vt 0.1664 0.4206 0.8757
vt 0.3451 0.4136 0.9767
vt 0.5491 0.4206 1.0000
vt 0.1319 0.2725 0.7674
vt 0.2798 0.2371 0.8757
vt 0.4573 0.2371 0.9333
vt 0.6406 0.2725 0.9327
vt 0.1243 0.5794 0.1664
vt 0.2988 0.5794 0.0396
vt 0.8336 0.5794 0.8757
vt 0.7542 0.4206 0.9333
vt 0.9055 0.4136 0.7946
vt 0.2054 0.4136 0.0945
vt 0.3922 0.4206 0.0093
vt 0.7892 0.2371 0.8255
vt 0.1745 0.2371 0.2108
vt 0.3255 0.2371 0.1011
vt 0.5000 0.2725 0.0451
vt 0.7012 0.5794 0.0396
vt 0.8757 0.5794 0.1664
vt 0.6078 0.4206 0.0093
vt 0.7946 0.4136 0.0945
vt 0.1664 0.5794 0.1243
vt 0.0945 0.4136 0.2054
vt 0.2458 0.4206 0.0667
vt 0.6745 0.2371 0.1010
vt 0.8255 0.2371 0.2108
vt 0.2108 0.2371 0.1745
vt 0.3594 0.2725 0.0673
vt 0.5491 0.5794 0.0000
vt 0.7542 0.5794 0.0667
vt 0.4509 0.4206 0.0000
vt 0.6549 0.4136 0.0233
vt 0.8336 0.4206 0.1243
vt 0.5427 0.2371 0.0667
vt 0.7202 0.2371 0.1243
vt 0.8681 0.2725 0.2326
vt 0.8757 0.4206 0.8336
vt 0.0945 0.5864 0.7946
vt 0.7946 0.5864 0.9055
vt 0.8255 0.7629 0.7892
vt 0.6549 0.5864 0.9767
vt 0.8681 0.7275 0.7674
vt 0.5000 0.5864 -0.0012
vt 0.3451 0.5864 0.0233
vt 0.1319 0.7275 0.2326
vt 0.1243 0.4206 0.8336
vt 0.2054 0.5864 0.9055
vt 0.9055 0.5864 0.2054
vt 0.1745 0.7629 0.7892
vt 0.5000 0.5000 -0.0086
vt 0.5567 0.6745 0.0256
vt 0.3516 0.6078 0.0256
vt 0.6058 0.8255 0.1237
vt 0.4068 0.7867 0.0903
vt 0.2231 0.7012 0.1237
vt 0.6058 0.1237 0.8255
vt 0.4068 0.0903 0.7867
vt 0.2798 0.8757 0.2371
vt 0.1319 0.7674 0.2725
vt 0.6835 0.5000 0.0256
vt 0.8423 0.5000 0.1237
vt 0.7439 0.6772 0.0903
vt 0.5000 0.1237 0.1577
vt 0.8989 0.6745 0.2371
vt 0.7892 0.8255 0.2371
vt 0.5567 0.3255 0.0256
vt 0.6058 0.1745 0.1237
vt 0.7439 0.3228 0.0903
vt 0.3942 0.1237 0.1745
vt 0.7892 0.1745 0.2371
vt 0.8990 0.3255 0.2371
vt 0.3516 0.3922 0.0256
vt 0.2231 0.2988 0.1237
vt 0.4068 0.2133 0.0903
vt 0.1319 0.2326 0.2725
vt 0.2798 0.1243 0.2371
vt 0.5932 0.0903 0.2133
vt 0.1985 0.5000 0.0903
vt 0.7012 0.1237 0.7769
vt 0.0747 0.5933 0.2371
vt 0.5000 0.0903 0.8015
vt 0.0747 0.4067 0.2371
vt 0.2988 0.1237 0.7769
# 144 texture coords

o GeoSphere002
g GeoSphere002
usemtl wire_198225087
s 1
f 1/1/1 2/2/2 3/3/3 
f 2/2/2 4/4/4 5/5/5 
f 2/2/2 5/5/5 3/3/3 
f 3/3/3 5/5/5 6/6/6 
f 4/7/4 7/8/7 8/9/8 
f 4/4/4 8/10/8 5/5/5 
f 5/5/5 8/10/8 9/11/9 
f 5/5/5 9/11/9 6/6/6 
f 6/12/6 9/13/9 10/14/10 
f 1/1/1 3/3/3 11/15/11 
f 3/3/3 6/6/6 12/16/12 
f 3/3/3 12/16/12 11/15/11 
f 11/15/11 12/16/12 13/17/13 
f 6/12/6 10/14/10 14/18/14 
f 6/12/6 14/18/14 12/19/12 
f 12/19/12 14/18/14 15/20/15 
f 12/16/12 15/21/15 13/17/13 
f 13/17/13 15/21/15 16/22/16 
f 1/1/1 11/15/11 17/23/17 
f 11/15/11 13/17/13 18/24/18 
f 11/15/11 18/24/18 17/23/17 
f 17/23/17 18/24/18 19/25/19 
f 13/26/13 16/27/16 20/28/20 
f 13/17/13 20/29/20 18/24/18 
f 18/30/18 20/28/20 21/31/21 
f 18/24/18 21/32/21 19/25/19 
f 19/33/19 21/31/21 22/34/22 
f 1/1/1 17/23/17 23/35/23 
f 17/23/17 19/25/19 24/36/24 
f 17/23/17 24/36/24 23/35/23 
f 23/35/23 24/36/24 25/37/25 
f 19/25/19 22/38/22 26/39/26 
f 19/25/19 26/39/26 24/36/24 
f 24/40/24 26/41/26 27/42/27 
f 24/40/24 27/42/27 25/43/25 
f 25/43/25 27/42/27 28/44/28 
f 1/1/1 23/35/23 2/2/2 
f 23/35/23 25/37/25 29/45/29 
f 23/35/23 29/45/29 2/2/2 
f 2/2/2 29/45/29 4/4/4 
f 25/43/25 28/44/28 30/46/30 
f 25/37/25 30/47/30 29/45/29 
f 29/45/29 30/47/30 31/48/31 
f 29/45/29 31/48/31 4/4/4 
f 4/7/4 31/49/31 7/8/7 
f 7/8/7 32/50/32 33/51/33 
f 32/50/32 34/52/34 35/53/35 
f 32/50/32 35/53/35 33/51/33 
f 33/51/33 35/53/35 36/54/36 
f 34/52/34 37/55/37 38/56/38 
f 34/52/34 38/56/38 35/53/35 
f 35/53/35 38/56/38 39/57/39 
f 35/53/35 39/57/39 36/54/36 
f 36/54/36 39/57/39 40/58/40 
f 10/14/10 41/59/41 42/60/42 
f 41/59/41 43/61/43 44/62/44 
f 41/59/41 44/62/44 42/60/42 
f 42/60/42 44/62/44 45/63/45 
f 43/61/43 40/64/40 46/65/46 
f 43/61/43 46/65/46 44/62/44 
f 44/62/44 46/65/46 47/66/47 
f 44/62/44 47/66/47 45/63/45 
f 45/63/45 47/66/47 48/67/48 
f 16/27/16 49/68/49 50/69/50 
f 49/70/49 51/71/51 52/72/52 
f 49/68/49 52/73/52 50/69/50 
f 50/69/50 52/73/52 53/74/53 
f 51/71/51 48/67/48 54/75/54 
f 51/71/51 54/75/54 52/72/52 
f 52/73/52 54/76/54 55/77/55 
f 52/73/52 55/77/55 53/74/53 
f 53/74/53 55/77/55 56/78/56 
f 22/34/22 57/79/57 58/80/58 
f 57/79/57 59/81/59 60/82/60 
f 57/79/57 60/82/60 58/80/58 
f 58/83/58 60/84/60 61/85/61 
f 59/81/59 56/78/56 62/86/62 
f 59/81/59 62/86/62 60/82/60 
f 60/82/60 62/86/62 63/87/63 
f 60/84/60 63/88/63 61/85/61 
f 61/85/61 63/88/63 64/89/64 
f 28/44/28 65/90/65 66/91/66 
f 65/90/65 67/92/67 68/93/68 
f 65/90/65 68/93/68 66/91/66 
f 66/91/66 68/93/68 69/94/69 
f 67/92/67 64/89/64 70/95/70 
f 67/92/67 70/95/70 68/93/68 
f 68/93/68 70/95/70 71/96/71 
f 68/93/68 71/96/71 69/94/69 
f 69/94/69 71/96/71 37/97/37 
f 40/58/40 43/98/43 36/54/36 
f 43/61/43 41/59/41 72/99/72 
f 43/98/43 72/100/72 36/54/36 
f 36/54/36 72/100/72 33/51/33 
f 41/59/41 10/14/10 9/13/9 
f 41/59/41 9/13/9 72/99/72 
f 72/100/72 9/101/9 8/9/8 
f 72/100/72 8/9/8 33/51/33 
f 33/51/33 8/9/8 7/8/7 
f 48/67/48 51/71/51 45/63/45 
f 51/71/51 49/70/49 73/102/73 
f 51/71/51 73/102/73 45/63/45 
f 45/63/45 73/102/73 42/60/42 
f 49/70/49 16/103/16 15/20/15 
f 49/70/49 15/20/15 73/102/73 
f 73/102/73 15/20/15 14/18/14 
f 73/102/73 14/18/14 42/60/42 
f 42/60/42 14/18/14 10/14/10 
f 56/78/56 59/81/59 53/74/53 
f 59/81/59 57/79/57 74/104/74 
f 59/81/59 74/104/74 53/74/53 
f 53/74/53 74/104/74 50/69/50 
f 57/79/57 22/34/22 21/31/21 
f 57/79/57 21/31/21 74/104/74 
f 74/104/74 21/31/21 20/28/20 
f 74/104/74 20/28/20 50/69/50 
f 50/69/50 20/28/20 16/27/16 
f 64/89/64 67/92/67 61/85/61 
f 67/92/67 65/90/65 75/105/75 
f 67/92/67 75/105/75 61/85/61 
f 61/85/61 75/105/75 58/83/58 
f 65/90/65 28/44/28 27/42/27 
f 65/90/65 27/42/27 75/105/75 
f 75/105/75 27/42/27 26/41/26 
f 75/105/75 26/41/26 58/83/58 
f 58/83/58 26/41/26 22/106/22 
f 37/55/37 34/52/34 69/107/69 
f 34/52/34 32/50/32 76/108/76 
f 34/52/34 76/108/76 69/107/69 
f 69/94/69 76/109/76 66/91/66 
f 32/50/32 7/8/7 31/49/31 
f 32/50/32 31/49/31 76/108/76 
f 76/108/76 31/49/31 30/110/30 
f 76/109/76 30/46/30 66/91/66 
f 66/91/66 30/46/30 28/44/28 
f 77/111/77 78/112/78 79/113/79 
f 78/112/78 80/114/80 81/115/81 
f 78/112/78 81/115/81 79/113/79 
f 79/113/79 81/115/81 82/116/82 
f 80/117/80 48/67/48 47/66/47 
f 80/117/80 47/66/47 81/118/81 
f 81/118/81 47/66/47 46/65/46 
f 81/115/81 46/119/46 82/116/82 
f 82/116/82 46/119/46 40/120/40 
f 77/111/77 83/121/83 78/112/78 
f 83/121/83 84/122/84 85/123/85 
f 83/121/83 85/123/85 78/112/78 
f 78/112/78 85/123/85 80/114/80 
f 84/124/84 56/78/56 55/77/55 
f 84/122/84 55/125/55 85/123/85 
f 85/123/85 55/125/55 54/126/54 
f 85/123/85 54/126/54 80/114/80 
f 80/117/80 54/75/54 48/67/48 
f 77/111/77 86/127/86 83/121/83 
f 86/127/86 87/128/87 88/129/88 
f 86/127/86 88/129/88 83/121/83 
f 83/121/83 88/129/88 84/122/84 
f 87/130/87 64/89/64 63/88/63 
f 87/128/87 63/131/63 88/129/88 
f 88/129/88 63/131/63 62/132/62 
f 88/129/88 62/132/62 84/122/84 
f 84/124/84 62/86/62 56/78/56 
f 77/111/77 89/133/89 86/127/86 
f 89/133/89 90/134/90 91/135/91 
f 89/133/89 91/135/91 86/127/86 
f 86/127/86 91/135/91 87/128/87 
f 90/134/90 37/136/37 71/137/71 
f 90/134/90 71/137/71 91/135/91 
f 91/138/91 71/96/71 70/95/70 
f 91/138/91 70/95/70 87/130/87 
f 87/130/87 70/95/70 64/89/64 
f 77/111/77 79/113/79 89/133/89 
f 79/113/79 82/116/82 92/139/92 
f 79/113/79 92/139/92 89/133/89 
f 89/133/89 92/139/92 90/134/90 
f 82/140/82 40/58/40 39/57/39 
f 82/116/82 39/141/39 92/139/92 
f 92/142/92 39/57/39 38/56/38 
f 92/139/92 38/143/38 90/134/90 
f 90/144/90 38/56/38 37/55/37 
# 0 polygons - 180 triangles

